<mxfile host="app.diagrams.net" agent="Mozilla/5.0 (Macintosh; Intel Mac OS X 10_15_7) AppleWebKit/537.36 (KHTML, like Gecko) Chrome/130.0.813.782 Safari/537.36" version="26.1.3" pages="2">
  <diagram name="Content Processing" id="content-processing">
    <mxGraphModel dx="2007" dy="1016" grid="1" gridSize="10" guides="1" tooltips="1" connect="1" arrows="1" fold="1" page="1" pageScale="1" pageWidth="1100" pageHeight="850" math="0" shadow="0">
      <root>
        <mxCell id="root-0" />
        <mxCell id="root-1" parent="root-0" />
        <mxCell id="title" value="Document Processing and RAG Pipeline" style="text;html=1;strokeColor=none;fillColor=none;align=center;verticalAlign=middle;whiteSpace=wrap;rounded=0;fontSize=24;fontStyle=1" vertex="1" parent="root-1">
          <mxGeometry x="400" y="20" width="600" height="40" as="geometry" />
        </mxCell>
        <mxCell id="frontend-layer" value="Frontend (Angular)" style="swimlane;whiteSpace=wrap;html=1;fillColor=#dd0031;strokeColor=#dd0031;fontColor=white;" vertex="1" parent="root-1">
          <mxGeometry x="40" y="80" width="760" height="160" as="geometry" />
        </mxCell>
        <mxCell id="input-group" value="Input Sources" style="swimlane;whiteSpace=wrap;html=1;fillColor=#f5f5f5;strokeColor=#666666;fontColor=#333333;" vertex="1" parent="frontend-layer">
          <mxGeometry x="20" y="40" width="320" height="100" as="geometry" />
        </mxCell>
        <mxCell id="upload-1" value="File Upload" style="rounded=1;whiteSpace=wrap;html=1;fillColor=#dae8fc;strokeColor=#6c8ebf;" vertex="1" parent="input-group">
          <mxGeometry x="10" y="30" width="100" height="40" as="geometry" />
        </mxCell>
        <mxCell id="drive-1" value="Google Drive" style="rounded=1;whiteSpace=wrap;html=1;fillColor=#4285f4;strokeColor=#4285f4;fontColor=white;" vertex="1" parent="input-group">
          <mxGeometry x="120" y="30" width="90" height="40" as="geometry" />
        </mxCell>
        <mxCell id="excel-upload" value="Bulk Excel&#xa;Upload" style="rounded=1;whiteSpace=wrap;html=1;fillColor=#70AD47;strokeColor=#70AD47;fontColor=white;" vertex="1" parent="input-group">
          <mxGeometry x="220" y="30" width="90" height="40" as="geometry" />
        </mxCell>
        <mxCell id="ui-group" value="UI Components" style="swimlane;whiteSpace=wrap;html=1;fillColor=#f5f5f5;strokeColor=#666666;fontColor=#333333;" vertex="1" parent="frontend-layer">
          <mxGeometry x="360" y="40" width="380" height="100" as="geometry" />
        </mxCell>
        <mxCell id="progress-tracker" value="Progress&#xa;Tracker" style="rounded=1;whiteSpace=wrap;html=1;fillColor=#dae8fc;strokeColor=#6c8ebf;" vertex="1" parent="ui-group">
          <mxGeometry x="10" y="30" width="80" height="40" as="geometry" />
        </mxCell>
        <mxCell id="toast-notif" value="Toast&#xa;Notifications" style="rounded=1;whiteSpace=wrap;html=1;fillColor=#dae8fc;strokeColor=#6c8ebf;" vertex="1" parent="ui-group">
          <mxGeometry x="100" y="30" width="80" height="40" as="geometry" />
        </mxCell>
        <mxCell id="metadata-editor" value="Metadata&#xa;Editor" style="rounded=1;whiteSpace=wrap;html=1;fillColor=#dae8fc;strokeColor=#6c8ebf;" vertex="1" parent="ui-group">
          <mxGeometry x="190" y="30" width="80" height="40" as="geometry" />
        </mxCell>
        <mxCell id="status-view" value="Status&#xa;Dashboard" style="rounded=1;whiteSpace=wrap;html=1;fillColor=#dae8fc;strokeColor=#6c8ebf;" vertex="1" parent="ui-group">
          <mxGeometry x="280" y="30" width="80" height="40" as="geometry" />
        </mxCell>
        <mxCell id="backend-layer" value="Backend (Flask)" style="swimlane;whiteSpace=wrap;html=1;fillColor=#2c3e50;strokeColor=#2c3e50;fontColor=white;" vertex="1" parent="root-1">
          <mxGeometry x="40" y="260" width="760" height="160" as="geometry" />
        </mxCell>
        <mxCell id="api-group" value="API Endpoints" style="swimlane;whiteSpace=wrap;html=1;fillColor=#34495e;strokeColor=#34495e;fontColor=white;" vertex="1" parent="backend-layer">
          <mxGeometry x="20" y="40" width="440" height="100" as="geometry" />
        </mxCell>
        <mxCell id="upload-api" value="/upload" style="rounded=1;whiteSpace=wrap;html=1;fillColor=#34495e;strokeColor=#ffffff;fontColor=white;" vertex="1" parent="api-group">
          <mxGeometry x="10" y="30" width="100" height="30" as="geometry" />
        </mxCell>
        <mxCell id="bulk-api" value="/bulk-upload" style="rounded=1;whiteSpace=wrap;html=1;fillColor=#34495e;strokeColor=#ffffff;fontColor=white;" vertex="1" parent="api-group">
          <mxGeometry x="120" y="30" width="100" height="30" as="geometry" />
        </mxCell>
        <mxCell id="drive-api" value="/drive-import" style="rounded=1;whiteSpace=wrap;html=1;fillColor=#34495e;strokeColor=#ffffff;fontColor=white;" vertex="1" parent="api-group">
          <mxGeometry x="230" y="30" width="100" height="30" as="geometry" />
        </mxCell>
        <mxCell id="status-api" value="/status" style="rounded=1;whiteSpace=wrap;html=1;fillColor=#34495e;strokeColor=#ffffff;fontColor=white;" vertex="1" parent="api-group">
          <mxGeometry x="340" y="30" width="90" height="30" as="geometry" />
        </mxCell>
        <mxCell id="notification-group" value="Notification Services" style="swimlane;whiteSpace=wrap;html=1;fillColor=#34495e;strokeColor=#34495e;fontColor=white;" vertex="1" parent="backend-layer">
          <mxGeometry x="480" y="40" width="260" height="100" as="geometry" />
        </mxCell>
        <mxCell id="email-service" value="Email&#xa;Service" style="rounded=1;whiteSpace=wrap;html=1;fillColor=#34495e;strokeColor=#ffffff;fontColor=white;" vertex="1" parent="notification-group">
          <mxGeometry x="10" y="30" width="100" height="40" as="geometry" />
        </mxCell>
        <mxCell id="websocket-service" value="WebSocket&#xa;Service" style="rounded=1;whiteSpace=wrap;html=1;fillColor=#34495e;strokeColor=#ffffff;fontColor=white;" vertex="1" parent="notification-group">
          <mxGeometry x="120" y="30" width="100" height="40" as="geometry" />
        </mxCell>
        <mxCell id="processing-layer" value="Processing Pipeline" style="swimlane;whiteSpace=wrap;html=1;fillColor=#34a853;strokeColor=#34a853;fontColor=white;" vertex="1" parent="root-1">
          <mxGeometry x="40" y="440" width="760" height="160" as="geometry" />
        </mxCell>
        <mxCell id="doc-proc" value="Document Processing" style="swimlane;whiteSpace=wrap;html=1;fillColor=#34a853;strokeColor=#ffffff;fontColor=white;" vertex="1" parent="processing-layer">
          <mxGeometry x="20" y="40" width="360" height="100" as="geometry" />
        </mxCell>
        <mxCell id="extract-1" value="1. Extract" style="rounded=1;whiteSpace=wrap;html=1;fillColor=#34a853;strokeColor=#ffffff;fontColor=white;" vertex="1" parent="doc-proc">
          <mxGeometry x="10" y="30" width="80" height="40" as="geometry" />
        </mxCell>
        <mxCell id="process-1" value="2. Process" style="rounded=1;whiteSpace=wrap;html=1;fillColor=#34a853;strokeColor=#ffffff;fontColor=white;" vertex="1" parent="doc-proc">
          <mxGeometry x="100" y="30" width="80" height="40" as="geometry" />
        </mxCell>
        <mxCell id="embed-1" value="3. Embed" style="rounded=1;whiteSpace=wrap;html=1;fillColor=#34a853;strokeColor=#ffffff;fontColor=white;" vertex="1" parent="doc-proc">
          <mxGeometry x="190" y="30" width="80" height="40" as="geometry" />
        </mxCell>
        <mxCell id="metadata-1" value="4. Index" style="rounded=1;whiteSpace=wrap;html=1;fillColor=#34a853;strokeColor=#ffffff;fontColor=white;" vertex="1" parent="doc-proc">
          <mxGeometry x="280" y="30" width="70" height="40" as="geometry" />
        </mxCell>
        <mxCell id="rag-proc" value="RAG Pipeline" style="swimlane;whiteSpace=wrap;html=1;fillColor=#ea4335;strokeColor=#ffffff;fontColor=white;" vertex="1" parent="processing-layer">
          <mxGeometry x="400" y="40" width="340" height="100" as="geometry" />
        </mxCell>
        <mxCell id="analyze-1" value="Analyze" style="rounded=1;whiteSpace=wrap;html=1;fillColor=#ea4335;strokeColor=#ffffff;fontColor=white;" vertex="1" parent="rag-proc">
          <mxGeometry x="10" y="30" width="70" height="40" as="geometry" />
        </mxCell>
        <mxCell id="summary-1" value="Summary" style="rounded=1;whiteSpace=wrap;html=1;fillColor=#ea4335;strokeColor=#ffffff;fontColor=white;" vertex="1" parent="rag-proc">
          <mxGeometry x="90" y="30" width="70" height="40" as="geometry" />
        </mxCell>
        <mxCell id="topics-1" value="Topics" style="rounded=1;whiteSpace=wrap;html=1;fillColor=#ea4335;strokeColor=#ffffff;fontColor=white;" vertex="1" parent="rag-proc">
          <mxGeometry x="170" y="30" width="70" height="40" as="geometry" />
        </mxCell>
        <mxCell id="tags-1" value="Tags" style="rounded=1;whiteSpace=wrap;html=1;fillColor=#ea4335;strokeColor=#ffffff;fontColor=white;" vertex="1" parent="rag-proc">
          <mxGeometry x="250" y="30" width="70" height="40" as="geometry" />
        </mxCell>
        <mxCell id="storage-layer" value="Storage Layer" style="swimlane;whiteSpace=wrap;html=1;fillColor=#4285f4;strokeColor=#4285f4;fontColor=white;" vertex="1" parent="root-1">
          <mxGeometry x="40" y="620" width="760" height="120" as="geometry" />
        </mxCell>
        <mxCell id="cloud-storage-1" value="Cloud Storage&#xa;(Original Files)" style="shape=cylinder3;whiteSpace=wrap;html=1;boundedLbl=1;backgroundOutline=1;size=15;fillColor=#4285f4;strokeColor=#ffffff;fontColor=white;" vertex="1" parent="storage-layer">
          <mxGeometry x="20" y="40" width="160" height="60" as="geometry" />
        </mxCell>
        <mxCell id="firestore-1" value="Firestore&#xa;(Metadata)" style="shape=cylinder3;whiteSpace=wrap;html=1;boundedLbl=1;backgroundOutline=1;size=15;fillColor=#34a853;strokeColor=#ffffff;fontColor=white;" vertex="1" parent="storage-layer">
          <mxGeometry x="300" y="40" width="160" height="60" as="geometry" />
        </mxCell>
        <mxCell id="vector-store-1" value="Vector Store&#xa;(Embeddings)" style="shape=cylinder3;whiteSpace=wrap;html=1;boundedLbl=1;backgroundOutline=1;size=15;fillColor=#ea4335;strokeColor=#ffffff;fontColor=white;" vertex="1" parent="storage-layer">
          <mxGeometry x="580" y="40" width="160" height="60" as="geometry" />
        </mxCell>
        <mxCell id="flow-frontend-backend" value="" style="endArrow=classic;html=1;rounded=1;exitX=0.5;exitY=1;entryX=0.5;entryY=0;strokeColor=#333333;strokeWidth=2;" edge="1" parent="root-1" source="frontend-layer" target="backend-layer">
          <mxGeometry relative="1" as="geometry" />
        </mxCell>
        <mxCell id="flow-backend-processing" value="" style="endArrow=classic;html=1;rounded=1;exitX=0.5;exitY=1;entryX=0.5;entryY=0;strokeColor=#333333;strokeWidth=2;" edge="1" parent="root-1" source="backend-layer" target="processing-layer">
          <mxGeometry relative="1" as="geometry" />
        </mxCell>
        <mxCell id="flow-processing-storage" value="" style="endArrow=classic;html=1;rounded=1;exitX=0.5;exitY=1;entryX=0.5;entryY=0;strokeColor=#333333;strokeWidth=2;" edge="1" parent="root-1" source="processing-layer" target="storage-layer">
          <mxGeometry relative="1" as="geometry" />
        </mxCell>
        <mxCell id="flow-notification" value="" style="endArrow=classic;html=1;rounded=1;curved=1;exitX=0.75;exitY=0;entryX=0.75;entryY=1;strokeColor=#dd0031;strokeWidth=2;dashed=1;" edge="1" parent="root-1" source="notification-group" target="ui-group">
          <mxGeometry relative="1" as="geometry" />
        </mxCell>
        <mxCell id="legend" value="Legend" style="swimlane;fontStyle=1;childLayout=stackLayout;horizontal=1;startSize=30;horizontalStack=0;resizeParent=1;resizeParentMax=0;resizeLast=0;collapsible=1;marginBottom=0;whiteSpace=wrap;html=1;fillColor=#ffffff;strokeColor=#666666;fontColor=#333333;" vertex="1" parent="root-1">
          <mxGeometry x="840" y="620" width="160" height="120" as="geometry" />
        </mxCell>
        <mxCell id="legend-content" value="→ Data Flow&#xa;⇢ Notification Flow&#xa;&#xa;🔴 Frontend (Angular)&#xa;⚫ Backend (Flask)&#xa;🟢 Processing" style="text;strokeColor=none;fillColor=none;align=left;verticalAlign=middle;spacingLeft=4;spacingRight=4;overflow=hidden;points=[[0,0.5],[1,0.5]];portConstraint=eastwest;rotatable=0;whiteSpace=wrap;html=1;" vertex="1" parent="legend">
          <mxGeometry y="30" width="160" height="90" as="geometry" />
        </mxCell>
      </root>
    </mxGraphModel>
  </diagram>
  <diagram id="sezh65A9NNMDrQk0SLL6" name="Page-2">
    <mxGraphModel dx="2007" dy="1016" grid="1" gridSize="10" guides="1" tooltips="1" connect="1" arrows="1" fold="1" page="1" pageScale="1" pageWidth="850" pageHeight="1100" math="0" shadow="0">
      <root>
        <mxCell id="0" />
        <mxCell id="1" parent="0" />
      </root>
    </mxGraphModel>
  </diagram>
</mxfile>
